<svg width="24" height="24" viewBox="0 0 24 24" fill="none" xmlns="http://www.w3.org/2000/svg">
<g clip-path="url(#clip0_995_11523)">
<path d="M12 21C16.9706 21 21 16.9706 21 12C21 7.02944 16.9706 3 12 3C7.02944 3 3 7.02944 3 12C3 16.9706 7.02944 21 12 21Z" stroke="#111114" stroke-width="1.5" stroke-linecap="round" stroke-linejoin="round"/>
<path d="M10 16.5L12 13.5M12 13.5L14 16.5M12 13.5V11.5M12 11.5L15 10.5M12 11.5L9 10.5" stroke="#111114" stroke-width="1.5" stroke-linecap="round" stroke-linejoin="round"/>
<path d="M12 8C12.2761 8 12.5 7.77614 12.5 7.5C12.5 7.22386 12.2761 7 12 7C11.7239 7 11.5 7.22386 11.5 7.5C11.5 7.77614 11.7239 8 12 8Z" fill="#111114" stroke="#111114" stroke-width="1.5" stroke-linecap="round" stroke-linejoin="round"/>
</g>
<defs>
<clipPath id="clip0_995_11523">
<rect width="24" height="24" fill="white"/>
</clipPath>
</defs>
</svg>
