<svg width="24" height="24" viewBox="0 0 24 24" fill="none" xmlns="http://www.w3.org/2000/svg">
<g clip-path="url(#clip0_2221_21511)">
<path d="M11 17C11.3154 17.1377 11.6559 17.2087 12 17.2087C12.3441 17.2087 12.6846 17.1377 13 17" stroke="#111114" stroke-width="1.5" stroke-linecap="round" stroke-linejoin="round"/>
<path d="M12 3C7.336 3 4.604 5.331 4.138 8.595C3.67046 11.6098 4.38713 14.6886 6.138 17.187C6.98067 18.4188 8.07001 19.4622 9.337 20.251C11.003 21.251 13.001 21.251 14.667 20.251C15.934 19.4622 17.0233 18.4188 17.866 17.187C19.6098 14.6854 20.3258 11.6095 19.866 8.595C19.4 5.33 16.668 3 12.004 3H12Z" stroke="#111114" stroke-width="1.5" stroke-linecap="round" stroke-linejoin="round"/>
<path d="M8 11L10 13" stroke="#111114" stroke-width="1.5" stroke-linecap="round" stroke-linejoin="round"/>
<path d="M16 11L14 13" stroke="#111114" stroke-width="1.5" stroke-linecap="round" stroke-linejoin="round"/>
</g>
<defs>
<clipPath id="clip0_2221_21511">
<rect width="24" height="24" fill="white"/>
</clipPath>
</defs>
</svg>
