<svg width="24" height="24" viewBox="0 0 24 24" fill="none" xmlns="http://www.w3.org/2000/svg">
<g clip-path="url(#clip0_995_11522)">
<path d="M12 13C12.5523 13 13 12.5523 13 12C13 11.4477 12.5523 11 12 11C11.4477 11 11 11.4477 11 12C11 12.5523 11.4477 13 12 13Z" stroke="#111114" stroke-width="1.5" stroke-linecap="round" stroke-linejoin="round"/>
<path d="M16.924 11.1319C16.7523 10.158 16.2957 9.25692 15.6119 8.54252C14.9281 7.82813 14.0478 7.33255 13.0823 7.11846C12.1169 6.90437 11.1096 6.98138 10.1879 7.33975C9.26623 7.69812 8.4715 8.32176 7.90425 9.13181C7.337 9.94185 7.02269 10.9019 7.00107 11.8906C6.97946 12.8793 7.25151 13.8522 7.78282 14.6862C8.31413 15.5203 9.08084 16.1781 9.98599 16.5764C10.8911 16.9747 11.8941 17.0956 12.868 16.9239" stroke="#111114" stroke-width="1.5" stroke-linecap="round" stroke-linejoin="round"/>
<path d="M3 12C3 13.78 3.52784 15.5201 4.51677 17.0001C5.50571 18.4802 6.91131 19.6337 8.55585 20.3149C10.2004 20.9961 12.01 21.1743 13.7558 20.8271C15.5016 20.4798 17.1053 19.6226 18.364 18.364C19.6226 17.1053 20.4798 15.5016 20.8271 13.7558C21.1743 12.01 20.9961 10.2004 20.3149 8.55585C19.6337 6.91131 18.4802 5.50571 17.0001 4.51677C15.5201 3.52784 13.78 3 12 3" stroke="#111114" stroke-width="1.5" stroke-linecap="round" stroke-linejoin="round"/>
</g>
<defs>
<clipPath id="clip0_995_11522">
<rect width="24" height="24" fill="white"/>
</clipPath>
</defs>
</svg>
