<svg width="24" height="24" viewBox="0 0 24 24" fill="none" xmlns="http://www.w3.org/2000/svg">
<path d="M11 4H5C4.44772 4 4 4.44772 4 5V11C4 11.5523 4.44772 12 5 12H11C11.5523 12 12 11.5523 12 11V5C12 4.44772 11.5523 4 11 4Z" stroke="#111114" stroke-width="1.5" stroke-linecap="round" stroke-linejoin="round"/>
<path d="M11 16H5C4.44772 16 4 16.4477 4 17V19C4 19.5523 4.44772 20 5 20H11C11.5523 20 12 19.5523 12 19V17C12 16.4477 11.5523 16 11 16Z" stroke="#111114" stroke-width="1.5" stroke-linecap="round" stroke-linejoin="round"/>
<path d="M19 4H17C16.4477 4 16 4.44772 16 5V7C16 7.55228 16.4477 8 17 8H19C19.5523 8 20 7.55228 20 7V5C20 4.44772 19.5523 4 19 4Z" stroke="#111114" stroke-width="1.5" stroke-linecap="round" stroke-linejoin="round"/>
<path d="M19 12H17C16.4477 12 16 12.4477 16 13V19C16 19.5523 16.4477 20 17 20H19C19.5523 20 20 19.5523 20 19V13C20 12.4477 19.5523 12 19 12Z" stroke="#111114" stroke-width="1.5" stroke-linecap="round" stroke-linejoin="round"/>
</svg>
