<svg width="24" height="24" viewBox="0 0 24 24" fill="none" xmlns="http://www.w3.org/2000/svg">
<g clip-path="url(#clip0_148_2090)">
<path d="M9.5 11H9.51" stroke="#111114" stroke-width="1.5" stroke-linecap="round" stroke-linejoin="round"/>
<path d="M14.5 11H14.51" stroke="#111114" stroke-width="1.5" stroke-linecap="round" stroke-linejoin="round"/>
<path d="M9.5 15C9.82588 15.3326 10.2148 15.5968 10.6441 15.7772C11.0734 15.9576 11.5344 16.0505 12 16.0505C12.4656 16.0505 12.9266 15.9576 13.3559 15.7772C13.7852 15.5968 14.1741 15.3326 14.5 15" stroke="#111114" stroke-width="1.5" stroke-linecap="round" stroke-linejoin="round"/>
<path d="M7 5H8V3H16V5H17C17.7956 5 18.5587 5.31607 19.1213 5.87868C19.6839 6.44129 20 7.20435 20 8V17C20 17.7956 19.6839 18.5587 19.1213 19.1213C18.5587 19.6839 17.7956 20 17 20V21H7V20C6.20435 20 5.44129 19.6839 4.87868 19.1213C4.31607 18.5587 4 17.7956 4 17V8C4 7.20435 4.31607 6.44129 4.87868 5.87868C5.44129 5.31607 6.20435 5 7 5" stroke="#111114" stroke-width="1.5" stroke-linecap="round" stroke-linejoin="round"/>
</g>
<defs>
<clipPath id="clip0_148_2090">
<rect width="24" height="24" fill="white"/>
</clipPath>
</defs>
</svg>
