<svg width="24" height="24" viewBox="0 0 24 24" fill="none" xmlns="http://www.w3.org/2000/svg">
<path d="M18 8V5C18 4.73478 17.8946 4.48043 17.7071 4.29289C17.5196 4.10536 17.2652 4 17 4H5C4.46957 4 3.96086 4.21071 3.58579 4.58579C3.21071 4.96086 3 5.46957 3 6M3 6C3 6.53043 3.21071 7.03914 3.58579 7.41421C3.96086 7.78929 4.46957 8 5 8H19C19.2652 8 19.5196 8.10536 19.7071 8.29289C19.8946 8.48043 20 8.73478 20 9V12M3 6V11M20 16V19C20 19.2652 19.8946 19.5196 19.7071 19.7071C19.5196 19.8946 19.2652 20 19 20H10" stroke="#111114" stroke-width="1.5" stroke-linecap="round" stroke-linejoin="round"/>
<path d="M6 20H6.00833" stroke="#111114" stroke-width="1.5" stroke-linecap="round" stroke-linejoin="round"/>
<path d="M3.64331 17.6433C4.2684 17.0184 5.1161 16.6674 5.99998 16.6674C6.88386 16.6674 7.73155 17.0184 8.35664 17.6433" stroke="#111114" stroke-width="1.5" stroke-linecap="round" stroke-linejoin="round"/>
<path d="M1.28583 15.2858C1.90489 14.6667 2.63983 14.1756 3.44869 13.8405C4.25755 13.5055 5.12449 13.333 5.99999 13.333C6.8755 13.333 7.74244 13.5055 8.5513 13.8405C9.36016 14.1756 10.0951 14.6667 10.7142 15.2858" stroke="#111114" stroke-width="1.5" stroke-linecap="round" stroke-linejoin="round"/>
<path d="M21 12V16H17C16.4696 16 15.9609 15.7893 15.5858 15.4142C15.2107 15.0391 15 14.5304 15 14C15 13.4696 15.2107 12.9609 15.5858 12.5858C15.9609 12.2107 16.4696 12 17 12H21Z" stroke="#111114" stroke-width="1.5" stroke-linecap="round" stroke-linejoin="round"/>
</svg>
