<svg width="24" height="24" viewBox="0 0 24 24" fill="none" xmlns="http://www.w3.org/2000/svg">
<path d="M18 8V5C18 4.73478 17.8946 4.48043 17.7071 4.29289C17.5196 4.10536 17.2652 4 17 4H5C4.46957 4 3.96086 4.21071 3.58579 4.58579C3.21071 4.96086 3 5.46957 3 6M3 6C3 6.53043 3.21071 7.03914 3.58579 7.41421C3.96086 7.78929 4.46957 8 5 8H19C19.2652 8 19.5196 8.10536 19.7071 8.29289C19.8946 8.48043 20 8.73478 20 9V12M3 6V13M20 16V19C20 19.2652 19.8946 19.5196 19.7071 19.7071C19.5196 19.8946 19.2652 20 19 20H10" stroke="#111114" stroke-width="1.5" stroke-linecap="round" stroke-linejoin="round"/>
<path d="M5 17.9999C5.16294 18.1662 5.35742 18.2984 5.57206 18.3886C5.7867 18.4787 6.01718 18.5252 6.25 18.5252C6.48282 18.5252 6.7133 18.4787 6.92794 18.3886C7.14258 18.2984 7.33706 18.1662 7.5 17.9999L9.5 15.9999C9.83152 15.6684 10.0178 15.2188 10.0178 14.7499C10.0178 14.2811 9.83152 13.8315 9.5 13.4999C9.16848 13.1684 8.71884 12.9822 8.25 12.9822C7.78116 12.9822 7.33152 13.1684 7 13.4999L6.75 13.7499" stroke="#111114" stroke-width="1.5" stroke-linecap="round" stroke-linejoin="round"/>
<path d="M7.00001 16C6.83707 15.8337 6.64258 15.7016 6.42794 15.6114C6.2133 15.5212 5.98283 15.4747 5.75001 15.4747C5.51719 15.4747 5.28671 15.5212 5.07207 15.6114C4.85743 15.7016 4.66295 15.8337 4.50001 16L2.50001 18C2.16849 18.3315 1.98224 18.7811 1.98224 19.25C1.98224 19.7188 2.16849 20.1685 2.50001 20.5C2.83153 20.8315 3.28116 21.0178 3.75001 21.0178C4.21885 21.0178 4.66849 20.8315 5.00001 20.5L5.25001 20.25" stroke="#111114" stroke-width="1.5" stroke-linecap="round" stroke-linejoin="round"/>
<path d="M21 12V16H17C16.4696 16 15.9609 15.7893 15.5858 15.4142C15.2107 15.0391 15 14.5304 15 14C15 13.4696 15.2107 12.9609 15.5858 12.5858C15.9609 12.2107 16.4696 12 17 12H21Z" stroke="#111114" stroke-width="1.5" stroke-linecap="round" stroke-linejoin="round"/>
</svg>
