<svg width="24" height="24" viewBox="0 0 24 24" fill="none" xmlns="http://www.w3.org/2000/svg">
<path d="M12 21C16.9706 21 21 16.9706 21 12C21 7.02944 16.9706 3 12 3C7.02944 3 3 7.02944 3 12C3 16.9706 7.02944 21 12 21Z" stroke="#111114" stroke-width="1.5" stroke-linecap="round" stroke-linejoin="round"/>
<path d="M8.03967 9.96936L12.1412 8.44861C12.5491 8.29737 13.0004 8.31436 13.3958 8.49585C13.7912 8.67735 14.0983 9.00848 14.2495 9.4164C14.4008 9.82432 14.3838 10.2756 14.2023 10.671C14.0208 11.0664 13.6897 11.3735 13.2817 11.5247C13.6897 11.3735 14.1409 11.3905 14.5363 11.572C14.9317 11.7535 15.2388 12.0846 15.3901 12.4925C15.5413 12.9004 15.5243 13.3517 15.3428 13.7471C15.1613 14.1425 14.8302 14.4496 14.4223 14.6009L10.3208 16.1216" stroke="#111114" stroke-width="1.5" stroke-linecap="round" stroke-linejoin="round"/>
<path d="M9.06503 9.58923L11.3462 15.7415" stroke="#111114" stroke-width="1.5" stroke-linecap="round" stroke-linejoin="round"/>
<path d="M10.2056 12.6654L13.2817 11.5248" stroke="#111114" stroke-width="1.5" stroke-linecap="round" stroke-linejoin="round"/>
<path d="M9.00745 7.86108L9.57773 9.39915" stroke="#111114" stroke-width="1.5" stroke-linecap="round" stroke-linejoin="round"/>
<path d="M11.0582 7.10059L11.6285 8.63865" stroke="#111114" stroke-width="1.5" stroke-linecap="round" stroke-linejoin="round"/>
<path d="M11.8589 15.5514L12.4291 17.0895" stroke="#111114" stroke-width="1.5" stroke-linecap="round" stroke-linejoin="round"/>
<path d="M13.9096 14.791L14.4799 16.3291" stroke="#111114" stroke-width="1.5" stroke-linecap="round" stroke-linejoin="round"/>
</svg>
