<svg width="24" height="24" viewBox="0 0 24 24" fill="none" xmlns="http://www.w3.org/2000/svg">
<g clip-path="url(#clip0_69_2505)">
<path d="M4 6H20" stroke="#111114" stroke-width="1.5" stroke-linecap="round" stroke-linejoin="round"/>
<path d="M10 10V17" stroke="#111114" stroke-width="1.5" stroke-linecap="round" stroke-linejoin="round"/>
<path d="M14 10V17" stroke="#111114" stroke-width="1.5" stroke-linecap="round" stroke-linejoin="round"/>
<path d="M5 6L6 18.8571C6 19.4255 6.21071 19.9705 6.58579 20.3724C6.96086 20.7742 7.46957 21 8 21H16C16.5304 21 17.0391 20.7742 17.4142 20.3724C17.7893 19.9705 18 19.4255 18 18.8571L19 6" stroke="#111114" stroke-width="1.5" stroke-linecap="round" stroke-linejoin="round"/>
<path d="M9 6V5C9 4.73478 9.10536 4.48043 9.29289 4.29289C9.48043 4.10536 9.73478 4 10 4H14C14.2652 4 14.5196 4.10536 14.7071 4.29289C14.8946 4.48043 15 4.73478 15 5V6" stroke="#111114" stroke-width="1.5" stroke-linecap="round" stroke-linejoin="round"/>
</g>
<defs>
<clipPath id="clip0_69_2505">
<rect width="24" height="24" fill="white"/>
</clipPath>
</defs>
</svg>
