<svg width="24" height="24" viewBox="0 0 24 24" fill="none" xmlns="http://www.w3.org/2000/svg">
<g clip-path="url(#clip0_2415_25154)">
<path d="M12 15C13.6569 15 15 13.6569 15 12C15 10.3431 13.6569 9 12 9C10.3431 9 9 10.3431 9 12C9 13.6569 10.3431 15 12 15Z" stroke="#111114" stroke-width="1.5" stroke-linecap="round" stroke-linejoin="round"/>
<path d="M12 21V21.01" stroke="#111114" stroke-width="1.5" stroke-linecap="round" stroke-linejoin="round"/>
<path d="M3 9V9.01" stroke="#111114" stroke-width="1.5" stroke-linecap="round" stroke-linejoin="round"/>
<path d="M21 9V9.01" stroke="#111114" stroke-width="1.5" stroke-linecap="round" stroke-linejoin="round"/>
<path d="M8 20.1C6.63534 19.4344 5.46126 18.4343 4.58704 17.1929C3.71281 15.9515 3.16686 14.5091 3 13" stroke="#111114" stroke-width="1.5" stroke-linecap="round" stroke-linejoin="round"/>
<path d="M16 20.1C17.3647 19.4344 18.5387 18.4343 19.413 17.1929C20.2872 15.9515 20.8331 14.5091 21 13" stroke="#111114" stroke-width="1.5" stroke-linecap="round" stroke-linejoin="round"/>
<path d="M6.20001 5.00005C7.8081 3.68401 9.82205 2.96497 11.9 2.96497C13.978 2.96497 15.9919 3.68401 17.6 5.00005" stroke="#111114" stroke-width="1.5" stroke-linecap="round" stroke-linejoin="round"/>
</g>
<defs>
<clipPath id="clip0_2415_25154">
<rect width="24" height="24" fill="white"/>
</clipPath>
</defs>
</svg>
