<svg width="24" height="24" viewBox="0 0 24 24" fill="none" xmlns="http://www.w3.org/2000/svg">
<g clip-path="url(#clip0_910_8173)">
<path d="M12 12.75C12.4142 12.75 12.75 12.4142 12.75 12C12.75 11.5858 12.4142 11.25 12 11.25C11.5858 11.25 11.25 11.5858 11.25 12C11.25 12.4142 11.5858 12.75 12 12.75Z" stroke="#111114" stroke-width="1.5" stroke-linecap="round" stroke-linejoin="round"/>
<path d="M12 19C12.4142 19 12.75 18.6642 12.75 18.25C12.75 17.8358 12.4142 17.5 12 17.5C11.5858 17.5 11.25 17.8358 11.25 18.25C11.25 18.6642 11.5858 19 12 19Z" stroke="#111114" stroke-width="1.5" stroke-linecap="round" stroke-linejoin="round"/>
<path d="M12 6.5C12.4142 6.5 12.75 6.16421 12.75 5.75C12.75 5.33579 12.4142 5 12 5C11.5858 5 11.25 5.33579 11.25 5.75C11.25 6.16421 11.5858 6.5 12 6.5Z" stroke="#111114" stroke-width="1.5" stroke-linecap="round" stroke-linejoin="round"/>
</g>
<defs>
<clipPath id="clip0_910_8173">
<rect width="24" height="24" fill="white"/>
</clipPath>
</defs>
</svg>
