<svg width="24" height="24" viewBox="0 0 24 24" fill="none" xmlns="http://www.w3.org/2000/svg">
<path d="M14.25 7C14.25 7.41421 14.5858 7.75 15 7.75C15.4142 7.75 15.75 7.41421 15.75 7H14.25ZM12 10H12.75C12.75 9.58579 12.4142 9.25 12 9.25V10ZM11.25 12C11.25 12.4142 11.5858 12.75 12 12.75C12.4142 12.75 12.75 12.4142 12.75 12H11.25ZM3.37599 17.488L3.77836 18.1209L3.77865 18.1207L3.37599 17.488ZM3.81599 19V18.25H3.81592L3.81599 19ZM20.184 19L20.1841 18.25H20.184V19ZM20.624 17.488L20.2213 18.1207L20.2216 18.1209L20.624 17.488ZM15.75 7C15.75 4.92893 14.0711 3.25 12 3.25V4.75C13.2426 4.75 14.25 5.75736 14.25 7H15.75ZM12 3.25C9.92892 3.25 8.24999 4.92893 8.24999 7H9.74999C9.74999 5.75736 10.7573 4.75 12 4.75V3.25ZM8.24999 7C8.24999 9.07107 9.92892 10.75 12 10.75V9.25C10.7573 9.25 9.74999 8.24264 9.74999 7H8.24999ZM11.25 10V12H12.75V10H11.25ZM11.5973 11.3673L2.97333 16.8553L3.77865 18.1207L12.4026 12.6327L11.5973 11.3673ZM2.97362 16.8551C2.38442 17.2296 2.11337 17.9483 2.30845 18.6187L3.74871 18.1996C3.74001 18.1697 3.75209 18.1376 3.77836 18.1209L2.97362 16.8551ZM2.30845 18.6187C2.50353 19.2891 3.11787 19.7501 3.81606 19.75L3.81592 18.25C3.78479 18.25 3.7574 18.2294 3.74871 18.1996L2.30845 18.6187ZM3.81599 19.75H20.184V18.25H3.81599V19.75ZM20.1839 19.75C20.8821 19.7501 21.4964 19.2891 21.6915 18.6187L20.2513 18.1996C20.2426 18.2294 20.2152 18.25 20.1841 18.25L20.1839 19.75ZM21.6915 18.6187C21.8866 17.9483 21.6156 17.2296 21.0264 16.8551L20.2216 18.1209C20.2479 18.1376 20.26 18.1697 20.2513 18.1996L21.6915 18.6187ZM21.0266 16.8553L12.4026 11.3673L11.5973 12.6327L20.2213 18.1207L21.0266 16.8553Z" fill="#111114"/>
</svg>
