<svg width="24" height="24" viewBox="0 0 24 24" fill="none" xmlns="http://www.w3.org/2000/svg">
<g clip-path="url(#clip0_1848_17455)">
<path d="M12 21C16.9706 21 21 16.9706 21 12C21 7.02944 16.9706 3 12 3C7.02944 3 3 7.02944 3 12C3 16.9706 7.02944 21 12 21Z" stroke="#111114" stroke-width="1.5" stroke-linecap="round" stroke-linejoin="round"/>
<path d="M12 21C14.2091 21 16 16.9706 16 12C16 7.02944 14.2091 3 12 3C9.79086 3 8 7.02944 8 12C8 16.9706 9.79086 21 12 21Z" stroke="#111114" stroke-width="1.5" stroke-linecap="round" stroke-linejoin="round"/>
<path d="M3 12C3 14.2091 7.02944 16 12 16C16.9706 16 21 14.2091 21 12C21 9.79086 16.9706 8 12 8C7.02944 8 3 9.79086 3 12Z" stroke="#111114" stroke-width="1.5" stroke-linecap="round" stroke-linejoin="round"/>
</g>
<defs>
<clipPath id="clip0_1848_17455">
<rect width="24" height="24" fill="white"/>
</clipPath>
</defs>
</svg>
