<svg width="24" height="24" viewBox="0 0 24 24" fill="none" xmlns="http://www.w3.org/2000/svg">
<path d="M13 3H11C10.4477 3 10 3.44772 10 4V6C10 6.55228 10.4477 7 11 7H13C13.5523 7 14 6.55228 14 6V4C14 3.44772 13.5523 3 13 3Z" stroke="#111114" stroke-width="1.5" stroke-linecap="round" stroke-linejoin="round"/>
<path d="M13 10H11C10.4477 10 10 10.4477 10 11V13C10 13.5523 10.4477 14 11 14H13C13.5523 14 14 13.5523 14 13V11C14 10.4477 13.5523 10 13 10Z" stroke="#111114" stroke-width="1.5" stroke-linecap="round" stroke-linejoin="round"/>
<path d="M13 17H11C10.4477 17 10 17.4477 10 18V20C10 20.5523 10.4477 21 11 21H13C13.5523 21 14 20.5523 14 20V18C14 17.4477 13.5523 17 13 17Z" stroke="#111114" stroke-width="1.5" stroke-linecap="round" stroke-linejoin="round"/>
</svg>
