<svg width="24" height="24" viewBox="0 0 24 24" fill="none" xmlns="http://www.w3.org/2000/svg">
<g clip-path="url(#clip0_148_2086)">
<path d="M15 5C15 3.34315 13.6569 2 12 2C10.3431 2 9 3.34315 9 5V10C9 11.6569 10.3431 13 12 13C13.6569 13 15 11.6569 15 10V5Z" stroke="#111114" stroke-width="1.5" stroke-linecap="round" stroke-linejoin="round"/>
<path d="M5 10C5 11.8565 5.7375 13.637 7.05025 14.9497C8.36301 16.2625 10.1435 17 12 17C13.8565 17 15.637 16.2625 16.9497 14.9497C18.2625 13.637 19 11.8565 19 10" stroke="#111114" stroke-width="1.5" stroke-linecap="round" stroke-linejoin="round"/>
<path d="M8 21H16" stroke="#111114" stroke-width="1.5" stroke-linecap="round" stroke-linejoin="round"/>
<path d="M12 17V21" stroke="#111114" stroke-width="1.5" stroke-linecap="round" stroke-linejoin="round"/>
</g>
<defs>
<clipPath id="clip0_148_2086">
<rect width="24" height="24" fill="white"/>
</clipPath>
</defs>
</svg>
