<svg width="24" height="24" viewBox="0 0 24 24" fill="none" xmlns="http://www.w3.org/2000/svg">
<g clip-path="url(#clip0_712_13655)">
<path d="M15 21H6C5.20435 21 4.44129 20.6839 3.87868 20.1213C3.31607 19.5587 3 18.7957 3 18V17H13V19C13 19.5304 13.2107 20.0391 13.5858 20.4142C13.9609 20.7893 14.4696 21 15 21ZM15 21C15.5304 21 16.0391 20.7893 16.4142 20.4142C16.7893 20.0391 17 19.5304 17 19V5C17 4.60444 17.1173 4.21776 17.3371 3.88886C17.5568 3.55996 17.8692 3.30362 18.2346 3.15224C18.6001 3.00087 19.0022 2.96126 19.3902 3.03843C19.7781 3.1156 20.1345 3.30608 20.4142 3.58579C20.6939 3.86549 20.8844 4.22186 20.9616 4.60982C21.0387 4.99778 20.9991 5.39992 20.8478 5.76537C20.6964 6.13082 20.44 6.44318 20.1111 6.66294C19.7822 6.8827 19.3956 7 19 7H17M19 3H8C7.20435 3 6.44129 3.31607 5.87868 3.87868C5.31607 4.44129 5 5.20435 5 6V17" stroke="#111114" stroke-width="1.5" stroke-linecap="round" stroke-linejoin="round"/>
<path d="M9 7H13" stroke="#111114" stroke-width="1.5" stroke-linecap="round" stroke-linejoin="round"/>
<path d="M9 11H13" stroke="#111114" stroke-width="1.5" stroke-linecap="round" stroke-linejoin="round"/>
</g>
<defs>
<clipPath id="clip0_712_13655">
<rect width="24" height="24" fill="white"/>
</clipPath>
</defs>
</svg>
