<svg width="25" height="24" viewBox="0 0 25 24" fill="none" xmlns="http://www.w3.org/2000/svg">
<g clip-path="url(#clip0_971_10279)">
<path d="M12.5 21C17.4706 21 21.5 16.9706 21.5 12C21.5 7.02944 17.4706 3 12.5 3C7.52944 3 3.5 7.02944 3.5 12C3.5 16.9706 7.52944 21 12.5 21Z" stroke="#111114" stroke-width="1.5" stroke-linecap="round" stroke-linejoin="round"/>
<path d="M12.5 13C14.1569 13 15.5 11.6569 15.5 10C15.5 8.34315 14.1569 7 12.5 7C10.8431 7 9.5 8.34315 9.5 10C9.5 11.6569 10.8431 13 12.5 13Z" stroke="#111114" stroke-width="1.5" stroke-linecap="round" stroke-linejoin="round"/>
<path d="M6.668 18.849C6.91551 18.0252 7.42197 17.3032 8.11225 16.79C8.80252 16.2768 9.63985 15.9997 10.5 16H14.5C15.3613 15.9997 16.1996 16.2774 16.8904 16.7918C17.5812 17.3062 18.0875 18.0298 18.334 18.855" stroke="#111114" stroke-width="1.5" stroke-linecap="round" stroke-linejoin="round"/>
</g>
<defs>
<clipPath id="clip0_971_10279">
<rect width="24" height="24" fill="white" transform="translate(0.5)"/>
</clipPath>
</defs>
</svg>
