<svg width="24" height="24" viewBox="0 0 24 24" fill="none" xmlns="http://www.w3.org/2000/svg">
<g clip-path="url(#clip0_3183_31806)">
<path d="M9.21427 12.8571C9.72576 12.8571 10.2163 13.0603 10.578 13.422C10.9397 13.7837 11.1428 14.2742 11.1428 14.7857V19.5C11.1428 20.0115 10.9397 20.502 10.578 20.8637C10.2163 21.2254 9.72576 21.4286 9.21427 21.4286H4.49998C3.98849 21.4286 3.49795 21.2254 3.13628 20.8637C2.7746 20.502 2.57141 20.0115 2.57141 19.5V14.7857C2.57141 14.2742 2.7746 13.7837 3.13628 13.422C3.49795 13.0603 3.98849 12.8571 4.49998 12.8571H9.21427ZM15.7157 12.8571V15.714H18.5717V18.5717H15.7157V21.4277H12.8571V18.5708H15.714V15.714H12.8571V12.8571H15.7148H15.7157ZM21.4286 18.5708V21.4286H18.5717V18.5717H21.4286V18.5708ZM9.21427 14.1428H4.49998C4.32949 14.1428 4.16597 14.2106 4.04541 14.3311C3.92485 14.4517 3.85713 14.6152 3.85713 14.7857V19.5C3.85713 19.8548 4.14513 20.1428 4.49998 20.1428H9.21427C9.38476 20.1428 9.54828 20.0751 9.66884 19.9546C9.7894 19.834 9.85713 19.6705 9.85713 19.5V14.7857C9.85713 14.6152 9.7894 14.4517 9.66884 14.3311C9.54828 14.2106 9.38476 14.1428 9.21427 14.1428ZM8.14284 15.8571V18.4286H5.57141V15.8571H8.14284ZM21.4286 12.8571V15.714H18.5717V12.8571H21.4286ZM9.21427 2.57141C9.72576 2.57141 10.2163 2.7746 10.578 3.13628C10.9397 3.49795 11.1428 3.98849 11.1428 4.49998V9.21427C11.1428 9.72576 10.9397 10.2163 10.578 10.578C10.2163 10.9397 9.72576 11.1428 9.21427 11.1428H4.49998C3.98849 11.1428 3.49795 10.9397 3.13628 10.578C2.7746 10.2163 2.57141 9.72576 2.57141 9.21427V4.49998C2.57141 3.98849 2.7746 3.49795 3.13628 3.13628C3.49795 2.7746 3.98849 2.57141 4.49998 2.57141H9.21427ZM19.5 2.57141C20.0115 2.57141 20.502 2.7746 20.8637 3.13628C21.2254 3.49795 21.4286 3.98849 21.4286 4.49998V9.21427C21.4286 9.72576 21.2254 10.2163 20.8637 10.578C20.502 10.9397 20.0115 11.1428 19.5 11.1428H14.7857C14.2742 11.1428 13.7837 10.9397 13.422 10.578C13.0603 10.2163 12.8571 9.72576 12.8571 9.21427V4.49998C12.8571 3.98849 13.0603 3.49795 13.422 3.13628C13.7837 2.7746 14.2742 2.57141 14.7857 2.57141H19.5ZM9.21427 3.85713H4.49998C4.32949 3.85713 4.16597 3.92485 4.04541 4.04541C3.92485 4.16597 3.85713 4.32949 3.85713 4.49998V9.21427C3.85713 9.56913 4.14513 9.85713 4.49998 9.85713H9.21427C9.38476 9.85713 9.54828 9.7894 9.66884 9.66884C9.7894 9.54828 9.85713 9.38476 9.85713 9.21427V4.49998C9.85713 4.32949 9.7894 4.16597 9.66884 4.04541C9.54828 3.92485 9.38476 3.85713 9.21427 3.85713ZM19.5 3.85713H14.7857C14.6152 3.85713 14.4517 3.92485 14.3311 4.04541C14.2106 4.16597 14.1428 4.32949 14.1428 4.49998V9.21427C14.1428 9.56913 14.4308 9.85713 14.7857 9.85713H19.5C19.6705 9.85713 19.834 9.7894 19.9546 9.66884C20.0751 9.54828 20.1428 9.38476 20.1428 9.21427V4.49998C20.1428 4.32949 20.0751 4.16597 19.9546 4.04541C19.834 3.92485 19.6705 3.85713 19.5 3.85713ZM8.14284 5.57141V8.14284H5.57141V5.57141H8.14284ZM18.4286 5.57141V8.14284H15.8571V5.57141H18.4286Z" fill="black"/>
</g>
<defs>
<clipPath id="clip0_3183_31806">
<rect width="24" height="24" fill="white"/>
</clipPath>
</defs>
</svg>
