<svg width="24" height="24" viewBox="0 0 24 24" fill="none" xmlns="http://www.w3.org/2000/svg">
<path d="M3 21H21" stroke="#111114" stroke-width="1.5" stroke-linecap="round" stroke-linejoin="round"/>
<path d="M3.75 7C3.75 6.58579 3.41421 6.25 3 6.25C2.58579 6.25 2.25 6.58579 2.25 7H3.75ZM9.75 7C9.75 6.58579 9.41421 6.25 9 6.25C8.58579 6.25 8.25 6.58579 8.25 7H9.75ZM9.75 8C9.75 7.58579 9.41421 7.25 9 7.25C8.58579 7.25 8.25 7.58579 8.25 8H9.75ZM15.75 7C15.75 6.58579 15.4142 6.25 15 6.25C14.5858 6.25 14.25 6.58579 14.25 7H15.75ZM15.75 8C15.75 7.58579 15.4142 7.25 15 7.25C14.5858 7.25 14.25 7.58579 14.25 8H15.75ZM21 7H21.75C21.75 6.58579 21.4142 6.25 21 6.25V7ZM3 7L2.32918 6.66459C2.21293 6.89708 2.22536 7.17319 2.36201 7.3943C2.49867 7.61541 2.74007 7.75 3 7.75V7ZM5 3V2.25C4.71592 2.25 4.45622 2.4105 4.32918 2.66459L5 3ZM19 3L19.6708 2.66459C19.5438 2.4105 19.2841 2.25 19 2.25V3ZM20.3292 7.33541C20.5144 7.70589 20.9649 7.85606 21.3354 7.67082C21.7059 7.48558 21.8561 7.03507 21.6708 6.66459L20.3292 7.33541ZM2.25 7V8H3.75V7H2.25ZM2.25 8C2.25 10.0711 3.92893 11.75 6 11.75V10.25C4.75736 10.25 3.75 9.24264 3.75 8H2.25ZM6 11.75C8.07107 11.75 9.75 10.0711 9.75 8H8.25C8.25 9.24264 7.24264 10.25 6 10.25V11.75ZM9.75 8V7H8.25V8H9.75ZM8.25 8C8.25 10.0711 9.92893 11.75 12 11.75V10.25C10.7574 10.25 9.75 9.24264 9.75 8H8.25ZM12 11.75C14.0711 11.75 15.75 10.0711 15.75 8H14.25C14.25 9.24264 13.2426 10.25 12 10.25V11.75ZM15.75 8V7H14.25V8H15.75ZM14.25 8C14.25 10.0711 15.9289 11.75 18 11.75V10.25C16.7574 10.25 15.75 9.24264 15.75 8H14.25ZM18 11.75C20.0711 11.75 21.75 10.0711 21.75 8H20.25C20.25 9.24264 19.2426 10.25 18 10.25V11.75ZM21.75 8V7H20.25V8H21.75ZM21 6.25H3V7.75H21V6.25ZM3.67082 7.33541L5.67082 3.33541L4.32918 2.66459L2.32918 6.66459L3.67082 7.33541ZM5 3.75H19V2.25H5V3.75ZM18.3292 3.33541L20.3292 7.33541L21.6708 6.66459L19.6708 2.66459L18.3292 3.33541Z" fill="#111114"/>
<path d="M5 21V10.85" stroke="#111114" stroke-width="1.5" stroke-linecap="round" stroke-linejoin="round"/>
<path d="M19 21V10.85" stroke="#111114" stroke-width="1.5" stroke-linecap="round" stroke-linejoin="round"/>
<path d="M9 21V17C9 15.8954 9.89543 15 11 15H13C14.1046 15 15 15.8954 15 17V21" stroke="#111114" stroke-width="1.5" stroke-linecap="round" stroke-linejoin="round"/>
</svg>
