<svg width="24" height="24" viewBox="0 0 24 24" fill="none" xmlns="http://www.w3.org/2000/svg">
<g clip-path="url(#clip0_2349_23773)">
<path d="M5 21V5C5 4.46957 5.21071 3.96086 5.58579 3.58579C5.96086 3.21071 6.46957 3 7 3H17C17.5304 3 18.0391 3.21071 18.4142 3.58579C18.7893 3.96086 19 4.46957 19 5V21L16 19L14 21L12 19L10 21L8 19L5 21Z" stroke="black" stroke-width="1.5" stroke-linecap="round" stroke-linejoin="round"/>
<path d="M15 14V12C15 11.4696 14.7893 10.9609 14.4142 10.5858C14.0391 10.2107 13.5304 10 13 10H9L11 8M11 12L9 10" stroke="black" stroke-width="1.5" stroke-linecap="round" stroke-linejoin="round"/>
</g>
<defs>
<clipPath id="clip0_2349_23773">
<rect width="24" height="24" fill="white"/>
</clipPath>
</defs>
</svg>
