<svg width="24" height="24" viewBox="0 0 24 24" fill="none" xmlns="http://www.w3.org/2000/svg">
<g clip-path="url(#clip0_631_11351)">
<path d="M10 14L21 3" stroke="#111114" stroke-width="1.5" stroke-linecap="round" stroke-linejoin="round"/>
<path d="M21 3L14.5 21C14.4561 21.0957 14.3857 21.1769 14.297 21.2338C14.2084 21.2906 14.1053 21.3209 14 21.3209C13.8947 21.3209 13.7916 21.2906 13.7029 21.2338C13.6143 21.1769 13.5439 21.0957 13.5 21L9.99999 14L2.99999 10.5C2.90425 10.4561 2.82312 10.3857 2.76624 10.2971C2.70936 10.2084 2.67912 10.1053 2.67912 10C2.67912 9.89468 2.70936 9.79158 2.76624 9.70295C2.82312 9.61431 2.90425 9.54387 2.99999 9.5L21 3Z" stroke="#111114" stroke-width="1.5" stroke-linecap="round" stroke-linejoin="round"/>
</g>
<defs>
<clipPath id="clip0_631_11351">
<rect width="24" height="24" fill="white"/>
</clipPath>
</defs>
</svg>
