<svg width="24" height="24" viewBox="0 0 24 24" fill="none" xmlns="http://www.w3.org/2000/svg">
<g clip-path="url(#clip0_148_2125)">
<path d="M6 15C7.65685 15 9 13.6569 9 12C9 10.3431 7.65685 9 6 9C4.34315 9 3 10.3431 3 12C3 13.6569 4.34315 15 6 15Z" stroke="#111114" stroke-width="1.5" stroke-linecap="round" stroke-linejoin="round"/>
<path d="M16 10C17.6569 10 19 8.65685 19 7C19 5.34315 17.6569 4 16 4C14.3431 4 13 5.34315 13 7C13 8.65685 14.3431 10 16 10Z" stroke="#111114" stroke-width="1.5" stroke-linecap="round" stroke-linejoin="round"/>
<path d="M16 20C17.6569 20 19 18.6569 19 17C19 15.3431 17.6569 14 16 14C14.3431 14 13 15.3431 13 17C13 18.6569 14.3431 20 16 20Z" stroke="#111114" stroke-width="1.5" stroke-linecap="round" stroke-linejoin="round"/>
<path d="M8.7 10.7L13.3 8.30005" stroke="#111114" stroke-width="1.5" stroke-linecap="round" stroke-linejoin="round"/>
<path d="M8.7 13.3L13.3 15.7" stroke="#111114" stroke-width="1.5" stroke-linecap="round" stroke-linejoin="round"/>
</g>
<defs>
<clipPath id="clip0_148_2125">
<rect width="24" height="24" fill="white"/>
</clipPath>
</defs>
</svg>
