<svg width="24" height="24" viewBox="0 0 24 24" fill="none" xmlns="http://www.w3.org/2000/svg">
<circle cx="12" cy="12" r="2" stroke="#111114" stroke-width="1.5" stroke-linecap="round" stroke-linejoin="round"/>
<path d="M3 11.25C2.58579 11.25 2.25 11.5858 2.25 12C2.25 12.4142 2.58579 12.75 3 12.75V11.25ZM7 12.75C7.41421 12.75 7.75 12.4142 7.75 12C7.75 11.5858 7.41421 11.25 7 11.25V12.75ZM12.75 3C12.75 2.58579 12.4142 2.25 12 2.25C11.5858 2.25 11.25 2.58579 11.25 3H12.75ZM11.25 7C11.25 7.41421 11.5858 7.75 12 7.75C12.4142 7.75 12.75 7.41421 12.75 7H11.25ZM17 11.25C16.5858 11.25 16.25 11.5858 16.25 12C16.25 12.4142 16.5858 12.75 17 12.75V11.25ZM21 12.75C21.4142 12.75 21.75 12.4142 21.75 12C21.75 11.5858 21.4142 11.25 21 11.25V12.75ZM12.75 17C12.75 16.5858 12.4142 16.25 12 16.25C11.5858 16.25 11.25 16.5858 11.25 17H12.75ZM11.25 21C11.25 21.4142 11.5858 21.75 12 21.75C12.4142 21.75 12.75 21.4142 12.75 21H11.25ZM8.03033 6.96967C7.73744 6.67678 7.26256 6.67678 6.96967 6.96967C6.67678 7.26256 6.67678 7.73744 6.96967 8.03033L8.03033 6.96967ZM7.96967 9.03033C8.26256 9.32322 8.73744 9.32322 9.03033 9.03033C9.32322 8.73744 9.32322 8.26256 9.03033 7.96967L7.96967 9.03033ZM17.0303 8.03033C17.3232 7.73744 17.3232 7.26256 17.0303 6.96967C16.7374 6.67678 16.2626 6.67678 15.9697 6.96967L17.0303 8.03033ZM14.9697 7.96967C14.6768 8.26256 14.6768 8.73744 14.9697 9.03033C15.2626 9.32322 15.7374 9.32322 16.0303 9.03033L14.9697 7.96967ZM16.0303 14.9697C15.7374 14.6768 15.2626 14.6768 14.9697 14.9697C14.6768 15.2626 14.6768 15.7374 14.9697 16.0303L16.0303 14.9697ZM15.9697 17.0303C16.2626 17.3232 16.7374 17.3232 17.0303 17.0303C17.3232 16.7374 17.3232 16.2626 17.0303 15.9697L15.9697 17.0303ZM9.03033 16.0303C9.32322 15.7374 9.32322 15.2626 9.03033 14.9697C8.73744 14.6768 8.26256 14.6768 7.96967 14.9697L9.03033 16.0303ZM6.96967 15.9697C6.67678 16.2626 6.67678 16.7374 6.96967 17.0303C7.26256 17.3232 7.73744 17.3232 8.03033 17.0303L6.96967 15.9697ZM3 12.75H7V11.25H3V12.75ZM11.25 3V7H12.75V3H11.25ZM17 12.75H21V11.25H17V12.75ZM11.25 17V21H12.75V17H11.25ZM6.96967 8.03033L7.96967 9.03033L9.03033 7.96967L8.03033 6.96967L6.96967 8.03033ZM15.9697 6.96967L14.9697 7.96967L16.0303 9.03033L17.0303 8.03033L15.9697 6.96967ZM14.9697 16.0303L15.9697 17.0303L17.0303 15.9697L16.0303 14.9697L14.9697 16.0303ZM7.96967 14.9697L6.96967 15.9697L8.03033 17.0303L9.03033 16.0303L7.96967 14.9697Z" fill="#111114"/>
</svg>
